<?xml version="1.0" encoding="UTF-8"?>
<!-- Generated by Pixelmator Pro 4.2 -->
<svg width="570" height="711" viewBox="0 0 570 711" xmlns="http://www.w3.org/2000/svg">
    <g id="Gruppe-Kopie">
        <path id="Pfad" fill="#fffefe" fill-rule="evenodd" stroke="none" d="M 308.091003 707.197449 C 323.036194 703.454346 335.106445 696.844238 352.449188 683.05304 C 358.777618 678.070068 366.435974 672.320435 369.408569 670.309998 C 382.534851 661.400085 397.382172 655.846008 413.473206 653.835632 C 421.999847 652.787415 424.776855 652.787415 433.976227 654.125061 C 446.140381 655.93988 455.050323 658.724731 470.187012 665.522583 C 487.999084 673.376465 494.710876 675.199097 508.885406 675.67627 C 523.451111 676.247437 529.294617 675.292969 538.681702 670.78717 C 551.322998 664.755981 560.905701 653.452332 565.599243 639.082214 C 567.711365 632.472107 568.188538 629.210083 568.571838 616.279358 C 569.04895 598.459473 568.571838 593.859802 561.101257 549.028503 C 558.03479 530.637573 554.585022 508.218018 553.43512 499.214233 C 551.807495 486.561401 551.286194 481.635101 550.407166 479.741211 L 534.353455 309.595734 L 533.888977 297.66626 C 532.744324 276.1138 526.900818 225.047913 523.161682 204.646576 C 510.418671 135.002014 481.302948 84.421082 433.209656 48.499756 C 391.343109 17.26416 342.107697 1.556396 286.066589 1.556396 C 257.709686 1.556396 238.841599 4.051758 214.028351 11.232849 C 143.617157 31.446533 91.025848 78.679382 63.52943 146.211792 C 51.55304 175.812439 45.521824 203.207184 41.016003 248.2341 C 37.378498 284.061584 34.116467 326.788574 34.405922 333.492554 L 34.691296 340.103851 L 18.606085 490.371033 C 18.151646 490.553894 17.939346 490.88562 17.939346 491.360352 C 17.845478 498.635345 12.001999 538.014282 5.869087 572.019104 C 1.660527 595.776306 0.408907 621.64563 2.998184 633.809814 C 6.447952 650.190308 16.703386 664.458679 30.111301 671.358276 C 39.975605 676.43512 44.575294 677.389465 58.655968 677.295593 C 74.074295 677.107849 81.544861 675.097412 102.047882 665.514709 C 121.878166 656.31543 128.965439 654.015564 143.718857 652.005127 C 156.266296 650.190308 171.880188 653.350586 186.25029 660.437866 C 193.337555 663.887695 202.153656 670.216125 218.628036 683.624084 C 237.691696 699.144043 250.145248 705.175354 270.836029 708.91449 C 276.006744 709.876709 302.157684 708.632874 308.091003 707.197449 Z M 361.357971 280.603241 C 345.174133 274.760498 335.20816 262.306946 330.037415 241.522247 C 327.158722 229.647614 327.158722 210.490082 330.131287 199.374146 C 336.55365 175.139709 352.644745 158.086548 369.025269 158.18042 C 385.98465 158.274231 401.598511 175.131897 407.535889 199.94519 C 410.125153 210.86554 409.835724 231.36853 407.058716 241.999481 C 402.169586 259.921021 392.782471 273.133392 380.712219 278.789093 C 373.429382 282.231079 367.492004 282.708221 361.357971 280.603241 Z M 187.586365 280.425995 C 171.97406 274.580597 160.865967 258.106201 156.743469 234.7323 C 155.210236 225.916199 156.172409 207.040283 158.660004 197.942627 C 164.980652 174.662537 180.977875 158.282104 197.553955 158.188171 C 213.738922 158.188171 229.165054 174.091492 235.485718 197.559326 C 238.356598 207.9086 238.544327 228.49765 236.056747 239.613586 C 231.840408 257.910645 221.498917 272.757904 208.75592 278.695251 C 200.808136 282.434448 194.487488 282.911621 187.586365 280.425995 Z"/>
    </g>
</svg>
