<?xml version="1.0" encoding="UTF-8"?>
<!-- Generated by Pixelmator Pro 4.2 -->
<svg width="565" height="336" viewBox="0 0 565 336" xmlns="http://www.w3.org/2000/svg">
    <path id="Pfad" fill="#eff0f1" stroke="none" d="M 86.339844 334.900024 C 88.989868 334.700012 93.239868 334.099976 95.839844 333.5 C 101.68988 332.150024 106.139832 330 229.539856 268.200012 C 279.839844 243 371.889832 197 434.039856 165.900024 C 496.139862 134.799988 548.389893 108.5 550.089844 107.400024 C 556.289856 103.5 561.589844 96.25 563.18988 89.5 C 564.139893 85.549988 564.43988 77.950012 563.789856 74.5 C 562.589844 67.799988 562.989868 68.650024 542.139893 28.75 C 532.339844 10 530.989868 8.150024 524.589844 4.299988 C 519.039856 0.950012 515.989868 0.25 507.539856 0.25 C 500.93985 0.25 499.639862 0.400024 496.889862 1.450012 C 495.139862 2.049988 454.539856 22.25 406.639862 46.25 C 226.339844 136.599976 89.68988 204.950012 79.039856 210.099976 C 64.139832 217.349976 61.589844 218 46.789856 218 C 26.68988 218 21.489868 219.049988 13.539856 224.549988 C 8.93988 227.700012 5.839844 231.349976 3.539856 236.25 C 0.539856 242.599976 0.539856 242.75 0.539856 277.25 L 0.539856 308.75 L 1.739868 312.950012 C 4.589844 322.849976 13.039856 331.299988 23.039856 334.099976 C 26.989868 335.200012 27.539856 335.25 54.289856 335.25 C 69.289856 335.25 83.68988 335.099976 86.339844 334.900024 Z"/>
</svg>
