<?xml version="1.0" encoding="UTF-8"?>
<!-- Generated by Pixelmator Pro 4.2 -->
<svg width="621" height="237" viewBox="0 0 621 237" xmlns="http://www.w3.org/2000/svg">
    <path id="Pfad-Kopie-2" fill="#fdc705" stroke="none" d="M 517.654785 202.154373 C 523.11499 202.154373 558.754761 187.878128 575.518555 178.968185 C 580.493713 176.386734 588.065979 172.076477 592.376221 169.487213 L 600.132813 164.703125 L 602.820313 154.929688 C 608.279602 134.817459 613.074829 115.941528 616.712341 99.467148 C 620.834839 81.17009 621.312012 74.943329 619.684937 59.13385 L 616.710938 28.765625 C 613.935303 -1.600784 614.600281 0.98848 609.429504 0.98848 C 605.604309 0.98848 604.454346 1.567352 600.331787 5.111008 L 595.546875 9.328125 L 586.632813 35.570313 C 570.347839 83.563797 549.844788 130.405502 523.983276 178.882141 C 517.654785 190.756836 515.167236 196.318695 515.167236 198.806274 C 515.167236 201.771072 515.448853 202.154373 517.654785 202.154373 Z M 10.328125 50.609375 C 12.628081 46.680298 13.199139 44.576004 13.011393 41.220093 L 12.71875 36.914063 L 7.742188 36.617188 C 1.989359 36.330963 2.177094 35.853806 1.222736 48.213486 L 0.554688 55.585938 L 4.007813 55.585938 C 7.074046 55.59024 7.645092 55.113022 10.328125 50.609375 Z M 296.085938 236.351563 C 336.037628 235.783691 357.401123 234.438187 388.628967 230.511276 L 406.25 228.210938 L 408.742188 225.054688 C 415.546478 216.524475 438.818726 185.867722 444.857727 177.536636 C 455.207062 163.260406 480.30191 125.805809 489.978516 110.19194 C 498.027924 97.261169 501.759338 90.932724 516.896057 65.071213 C 520.822998 58.461121 522.833374 53.955292 522.833374 51.944885 C 522.833374 48.878433 522.739502 48.878433 518.233704 48.878433 C 515.268921 48.878433 507.602783 50.701111 497.832367 53.767563 C 472.354187 61.621429 438.247681 69.670914 406.730408 75.131073 C 403.663971 75.702103 400.886963 78.385239 380.767212 101.37587 C 350.30603 136.155136 334.019379 153.48999 292.73175 195.067108 C 260.541748 227.444778 257.475311 230.800705 257.475311 233.671585 L 257.484375 236.929688 Z M 101.899529 213.551895 C 104.387138 213.645767 106.882523 211.924774 116.746826 203.398132 L 161.195313 165.265625 L 200.757813 131.164063 L 225.765625 109.226563 C 241.955307 95.149063 243.871796 93.138702 243.965668 90.455505 L 244.0625 87.390625 L 228.0625 86.820313 C 204.688446 85.863647 176.425415 83.563797 154.490845 80.880661 C 135.716614 78.580811 106.97641 73.793381 100.36631 71.876846 C 98.55146 71.399673 94.624527 70.922501 91.651955 70.922501 L 86.289063 70.921875 L 75.367188 82.226563 C 51.412521 106.937714 36.760792 123.513794 18.55761 146.121124 C 6.393472 161.351685 5.532993 162.689362 5.532993 166.522461 L 5.53125 170.648438 L 14.445313 176.390625 C 32.356667 187.979828 56.403316 199.095703 84.087494 208.482819 C 92.222984 211.158188 100.272446 213.458023 101.899529 213.551895 Z"/>
</svg>
