<?xml version="1.0" encoding="UTF-8"?>
<!-- Generated by Pixelmator Pro 4.2 -->
<svg width="600" height="112" viewBox="0 0 600 112" xmlns="http://www.w3.org/2000/svg">
    <path id="Pfad-Kopie-3" fill="#dfa508" fill-rule="evenodd" stroke="none" d="M 564.819885 70.403381 C 567.990723 69.703987 572.874573 67.005745 579.538635 62.259953 C 594.387878 51.723896 599.175293 44.926056 599.175293 34.576782 C 599.175293 24.900185 594.09845 18.861168 580.588806 12.540543 C 571.700439 8.393562 565.877686 6.487709 561.075562 6.364479 L 542.356873 0.877029 L 542.356873 78.320724 Z M 67.52536 11.828659 L 39.364014 23.562553 C 35.21233 24.351036 31.008791 26.592148 21.99296 32.550705 C 12.989146 38.488075 4.947519 46.631378 2.358242 52.381016 C -0.418782 58.607769 -0.324914 71.163025 2.741541 77.57756 C 5.909695 84.383232 15.484556 93.003746 25.927723 98.463898 C 32.603104 101.910561 37.793167 103.520996 40.187496 102.984161 L 40.146275 103.353027 L 62.049541 111.175621 Z"/>
</svg>
