<?xml version="1.0" encoding="UTF-8"?>
<!-- Generated by Pixelmator Pro 4.2 -->
<svg width="655" height="319" viewBox="0 0 655 319" xmlns="http://www.w3.org/2000/svg">
    <path id="Pfad-Kopie" fill="#000000" fill-rule="evenodd" stroke="none" d="M 517.218018 289.739624 C 539.919434 283.22464 570.959473 271.920959 583.123596 265.788086 C 586.10968 264.269348 587.778625 263.723907 588.677917 264.403809 L 589.045349 264.200073 L 603.908264 256.377472 L 604.26886 256.389709 C 604.981812 255.056702 607.219055 253.404633 611.957703 250.651337 C 626.906677 241.647522 632.648438 237.52504 641.847839 228.810669 C 651.805969 219.423553 653.816467 216.450958 654.872498 209.840866 C 655.545227 205.820038 653.527039 178.800812 649.506226 137.035965 C 643.185486 72.569977 640.690125 49.477661 639.44635 45.073547 C 636.575439 35.107574 624.888489 23.514465 610.518372 16.333344 C 602.953918 12.601929 591.266968 8.291687 580.534363 5.319092 L 566.457581 0.621399 L 568.657715 18.185577 L 582.005005 21.699615 L 582.738342 22.371887 C 585.900635 21.128601 605.347656 29.170197 612.247131 34.53653 C 616.940674 38.267883 620.296631 43.728088 620.296631 47.561127 C 620.296631 54.750092 613.788208 62.987305 600.661865 72.37442 C 597.485901 74.682037 593.269531 77.365189 591.353027 78.515137 L 587.713013 80.527985 L 587.529724 79.495148 L 587.480835 80.36908 L 572.617859 88.973938 L 572.397888 88.735596 L 560.517273 93.728607 C 501.987671 118.449478 432.72641 133.875656 346.318054 141.440094 C 326.386047 143.1689 249.270935 144.029373 226.083023 142.693161 C 177.608124 140.102417 121.856476 131.771378 89.572632 122.478134 L 78.559883 119.225388 L 78.498772 118.53479 L 62.10799 113.08342 C 59.119274 112.887619 43.215923 103.117203 38.0452 98.329788 C 24.246143 85.399002 23.581219 72.08493 36.128654 58.864777 C 44.908688 49.553955 64.811661 37.743591 68.05558 39.393524 L 82.177834 34.490784 L 83.650681 16.101593 L 70.407272 20.917358 L 70.27282 20.544556 L 70.236153 20.746246 L 62.761909 23.905853 C 41.4011 33.003296 24.058397 46.512878 14.671283 61.454071 C 9.594415 69.503494 8.061193 82.621994 3.367635 161.94313 C 2.796589 171.142456 1.740534 188.477356 0.880044 200.453751 C -0.653178 224.210968 -0.465443 226.510803 4.134246 235.037415 C 5.479734 237.618896 9.3128 242.218597 12.567003 245.285034 C 18.981529 251.222366 34.407688 261.954987 41.878269 265.498596 C 44.266251 266.662628 45.480141 267.434204 46.045624 268.33905 L 46.157227 268.111359 L 62.584679 275.151703 L 62.755798 275.500061 L 64.47921 276.233429 C 69.077423 278.624939 93.124092 287.44101 105.671524 291.36792 C 132.495209 299.706848 170.724228 307.944 203.579117 312.254272 C 303.591034 325.568329 421.610504 317.041687 517.218018 289.739624 Z M 535.030334 267.602875 C 535.030334 267.415161 538.957214 259.842896 543.846375 250.745209 C 569.707886 202.276428 590.210876 155.426895 606.497559 107.435242 L 615.409912 81.188019 L 620.195129 76.971146 C 622.78418 74.67421 625.561218 72.851578 626.421692 72.851578 C 628.244324 72.851578 628.338196 73.524323 630.731934 99.198074 C 635.425476 148.722931 635.331604 145.085403 632.359009 158.782776 C 628.909302 174.686127 624.215759 193.843658 618.661682 214.34668 L 614.254883 230.81958 L 606.499512 235.610931 C 594.521118 242.891327 581.78595 249.407562 567.893066 255.344879 C 554.477295 260.992828 535.030334 268.369537 535.030334 267.602875 Z M 21.381603 117.208618 C 21.86025 109.828964 22.337429 108.295761 24.543394 108.295761 C 27.320417 108.295761 27.70373 110.493912 25.497751 114.710297 C 24.543394 116.720657 23.10404 119.122208 22.337429 120.076584 C 21.195324 121.515915 21.093639 121.226486 21.381603 117.208618 Z M 312.400482 267.219116 C 354.070221 225.165298 370.263 207.924316 400.63031 173.246735 C 420.75 150.256165 423.527008 147.572983 426.593506 147.001938 C 458.20459 141.541794 492.209442 133.49231 517.789307 125.544571 C 526.503662 122.861435 534.365356 120.851013 535.319763 120.944885 C 536.65741 121.234314 536.086365 122.673691 531.869934 129.854828 L 520.658752 149.01236 C 505.335724 175.257156 477.174377 218.46138 458.971191 243.657928 C 453.033875 251.989014 429.753815 282.645752 422.854279 291.172363 L 420.364502 294.335388 L 402.745331 296.63327 C 393.065826 297.782471 376.974792 299.511292 366.914886 300.371735 C 356.847229 301.232269 332.706696 302.186584 312.782593 302.476013 L 276.862671 302.952484 Z M 78.19931 265.031219 C 56.835064 256.213196 25.411703 238.68277 25.411703 235.522461 C 25.411703 234.184784 47.252388 206.594467 57.883289 194.5242 C 67.364273 183.603851 83.079887 166.64447 95.244011 154.097046 C 106.829277 142.026779 107.502029 141.73735 114.495407 143.747772 C 121.105507 145.664261 149.845718 150.451736 168.619949 152.751587 C 190.562332 155.434723 218.817551 157.734573 242.003708 158.688904 L 258.002869 159.261185 L 241.526535 173.818542 L 214.031342 197.958588 L 168.617508 237.138779 L 127.903343 272.108215 C 124.469215 275.081268 121.01947 277.960022 120.252853 278.437195 C 118.625763 279.587097 96.401764 272.499817 78.19931 265.031219 Z"/>
</svg>
