<?xml version="1.0" encoding="UTF-8"?>
<!-- Generated by Pixelmator Pro 4.2 -->
<svg width="617" height="118" viewBox="0 0 617 118" xmlns="http://www.w3.org/2000/svg">
    <path id="Pfad" fill="#eff0f1" stroke="none" d="M 586.539856 117.200012 C 587.639893 117.099976 589.889893 116.75 591.539856 116.450012 C 603.239868 114.349976 613.039856 104.200012 615.539856 91.700012 C 616.239868 88.099976 616.339844 83.799988 616.18988 57.200012 L 615.989868 26.75 L 614.739868 22.650024 C 613.089844 17.299988 610.789856 13.5 606.739868 9.450012 C 603.039856 5.799988 597.43988 2.700012 591.789856 1.150024 C 588.739868 0.349976 578.389893 0.25 410.089844 0.150024 C 251.139862 0 231.289856 0.049988 228.639832 0.75 C 226.739868 1.25 184.139832 22.25 112.989868 57.849976 L 0.289856 114.150024 L 0.289856 115.700012 L 0.289856 117.25 L 292.389862 117.299988 C 453.089844 117.349976 585.43988 117.299988 586.539856 117.200012 Z"/>
</svg>
